<svg id="Layer_1" data-name="Layer 1" xmlns="http://www.w3.org/2000/svg" viewBox="0 0 48 73"><defs><style>.cls-1{fill:#f9e3d3;}</style></defs><path class="cls-1" d="M41.71,17.06A45.8,45.8,0,0,0,25.21.7L24,0,22.79.7A45.53,45.53,0,0,0,0,40.17c0,.53,0,1,0,1.58C.27,48.84,3,54.8,7.87,59a24.37,24.37,0,0,0,13.71,5.64V73h4.84V34.27H21.58v25.5C13.4,58.82,5.26,53,4.87,41.58q0-.7,0-1.41A40.9,40.9,0,0,1,24,5.62,40.92,40.92,0,0,1,38,20.43a41,41,0,0,1,5.13,19.74q0,.7,0,1.41c-.31,9.17-5.58,14.7-11.87,17v5.12A23.65,23.65,0,0,0,40.13,59C45,54.8,47.73,48.84,48,41.75c0-.53,0-1,0-1.58A45.61,45.61,0,0,0,41.71,17.06Z"/></svg>