<svg width="106" height="23" viewBox="0 0 106 23" fill="none" xmlns="http://www.w3.org/2000/svg">
<rect width="106" height="23" fill="#FAE4D3"/>
<path d="M24.2414 7.29C25.0734 7.29 25.7927 7.46767 26.3994 7.823C27.0061 8.17833 27.4741 8.68533 27.8034 9.344C28.1327 10.0027 28.2974 10.7913 28.2974 11.71C28.2974 12.6287 28.1327 13.4173 27.8034 14.076C27.4741 14.7347 27.0061 15.2417 26.3994 15.597C25.7927 15.9523 25.0734 16.13 24.2414 16.13C23.4181 16.13 22.7031 15.9523 22.0964 15.597C21.4897 15.2417 21.0217 14.7347 20.6924 14.076C20.3631 13.4173 20.1984 12.6287 20.1984 11.71C20.1984 10.7913 20.3631 10.0027 20.6924 9.344C21.0217 8.68533 21.4897 8.17833 22.0964 7.823C22.7031 7.46767 23.4181 7.29 24.2414 7.29ZM24.2414 8.499C23.7041 8.499 23.2404 8.62467 22.8504 8.876C22.4691 9.12733 22.1744 9.49133 21.9664 9.968C21.7584 10.4447 21.6544 11.0253 21.6544 11.71C21.6544 12.386 21.7584 12.9667 21.9664 13.452C22.1744 13.9287 22.4691 14.2927 22.8504 14.544C23.2404 14.7953 23.7041 14.921 24.2414 14.921C24.7874 14.921 25.2511 14.7953 25.6324 14.544C26.0224 14.2927 26.3214 13.9287 26.5294 13.452C26.7374 12.9667 26.8414 12.386 26.8414 11.71C26.8414 11.0253 26.7374 10.4447 26.5294 9.968C26.3214 9.49133 26.0224 9.12733 25.6324 8.876C25.2511 8.62467 24.7874 8.499 24.2414 8.499ZM30.1201 16V9.5H31.3031L31.4331 10.67C31.6065 10.2453 31.8621 9.92467 32.2001 9.708C32.5468 9.48267 32.9715 9.37 33.4741 9.37C33.6041 9.37 33.7341 9.383 33.8641 9.409C33.9941 9.42633 34.1025 9.45667 34.1891 9.5L33.9941 10.722C33.8988 10.6873 33.7905 10.6613 33.6691 10.644C33.5565 10.618 33.4005 10.605 33.2011 10.605C32.9325 10.605 32.6681 10.6787 32.4081 10.826C32.1481 10.9647 31.9315 11.177 31.7581 11.463C31.5935 11.749 31.5111 12.113 31.5111 12.555V16H30.1201ZM37.8339 16.13C37.2966 16.13 36.8069 15.9957 36.3649 15.727C35.9316 15.4583 35.5892 15.0727 35.3379 14.57C35.0866 14.0673 34.9609 13.465 34.9609 12.763C34.9609 12.035 35.0952 11.4197 35.3639 10.917C35.6326 10.4143 35.9922 10.033 36.4429 9.773C36.8936 9.50433 37.3876 9.37 37.9249 9.37C38.4796 9.37 38.9476 9.52167 39.3289 9.825C39.7102 10.1283 39.9659 10.5227 40.0959 11.008L39.9399 11.151V6.575H41.3309V16H40.0959L39.9919 14.232L40.1739 14.245C40.1132 14.635 39.9702 14.973 39.7449 15.259C39.5196 15.5363 39.2379 15.753 38.8999 15.909C38.5706 16.0563 38.2152 16.13 37.8339 16.13ZM38.1329 15.012C38.5056 15.012 38.8262 14.9167 39.0949 14.726C39.3636 14.5353 39.5716 14.2667 39.7189 13.92C39.8662 13.5733 39.9399 13.1573 39.9399 12.672C39.9399 12.2213 39.8662 11.8357 39.7189 11.515C39.5716 11.1857 39.3636 10.9343 39.0949 10.761C38.8349 10.5877 38.5316 10.501 38.1849 10.501C37.6042 10.501 37.1536 10.7003 36.8329 11.099C36.5122 11.4977 36.3519 12.048 36.3519 12.75C36.3519 13.452 36.5079 14.0067 36.8199 14.414C37.1319 14.8127 37.5696 15.012 38.1329 15.012ZM46.3483 16.13C45.6983 16.13 45.1263 15.9957 44.6323 15.727C44.1383 15.4583 43.7526 15.0727 43.4753 14.57C43.2066 14.0587 43.0723 13.452 43.0723 12.75C43.0723 12.048 43.2066 11.4457 43.4753 10.943C43.7526 10.4317 44.134 10.0417 44.6193 9.773C45.1046 9.50433 45.655 9.37 46.2703 9.37C46.903 9.37 47.4403 9.5 47.8823 9.76C48.3243 10.02 48.6623 10.3753 48.8963 10.826C49.1303 11.2767 49.2473 11.788 49.2473 12.36C49.2473 12.516 49.243 12.6633 49.2343 12.802C49.2256 12.9407 49.2126 13.062 49.1953 13.166H43.9693V12.1H48.5843L47.8953 12.308C47.8953 11.7187 47.748 11.268 47.4533 10.956C47.1586 10.6353 46.7556 10.475 46.2443 10.475C45.8716 10.475 45.5466 10.5617 45.2693 10.735C44.992 10.9083 44.7796 11.1683 44.6323 11.515C44.485 11.853 44.4113 12.269 44.4113 12.763C44.4113 13.2483 44.4893 13.66 44.6453 13.998C44.8013 14.336 45.0223 14.5917 45.3083 14.765C45.5943 14.9383 45.9323 15.025 46.3223 15.025C46.7556 15.025 47.1066 14.9427 47.3753 14.778C47.644 14.6133 47.8563 14.3837 48.0123 14.089L49.1173 14.609C48.9613 14.921 48.749 15.194 48.4803 15.428C48.2203 15.6533 47.9083 15.8267 47.5443 15.948C47.1803 16.0693 46.7816 16.13 46.3483 16.13ZM51.0039 16V9.5H52.1869L52.3169 10.67C52.4903 10.2453 52.7459 9.92467 53.0839 9.708C53.4306 9.48267 53.8553 9.37 54.3579 9.37C54.4879 9.37 54.6179 9.383 54.7479 9.409C54.8779 9.42633 54.9863 9.45667 55.0729 9.5L54.8779 10.722C54.7826 10.6873 54.6743 10.6613 54.5529 10.644C54.4403 10.618 54.2843 10.605 54.0849 10.605C53.8163 10.605 53.5519 10.6787 53.2919 10.826C53.0319 10.9647 52.8153 11.177 52.6419 11.463C52.4773 11.749 52.3949 12.113 52.3949 12.555V16H51.0039ZM60.335 16V6.575H61.726V10.54C61.9426 10.1327 62.233 9.838 62.597 9.656C62.9696 9.46533 63.3813 9.37 63.832 9.37C64.2913 9.37 64.703 9.461 65.067 9.643C65.4396 9.81633 65.7343 10.0807 65.951 10.436C66.1676 10.7913 66.276 11.242 66.276 11.788V16H64.885V12.23C64.885 11.5887 64.7506 11.1423 64.482 10.891C64.222 10.6397 63.8926 10.514 63.494 10.514C63.2166 10.514 62.9393 10.5833 62.662 10.722C62.3933 10.852 62.168 11.0687 61.986 11.372C61.8126 11.6667 61.726 12.0653 61.726 12.568V16H60.335ZM71.2438 16.13C70.5938 16.13 70.0218 15.9957 69.5278 15.727C69.0338 15.4583 68.6481 15.0727 68.3708 14.57C68.1021 14.0587 67.9678 13.452 67.9678 12.75C67.9678 12.048 68.1021 11.4457 68.3708 10.943C68.6481 10.4317 69.0295 10.0417 69.5148 9.773C70.0001 9.50433 70.5505 9.37 71.1658 9.37C71.7985 9.37 72.3358 9.5 72.7778 9.76C73.2198 10.02 73.5578 10.3753 73.7918 10.826C74.0258 11.2767 74.1428 11.788 74.1428 12.36C74.1428 12.516 74.1385 12.6633 74.1298 12.802C74.1211 12.9407 74.1081 13.062 74.0908 13.166H68.8648V12.1H73.4798L72.7908 12.308C72.7908 11.7187 72.6435 11.268 72.3488 10.956C72.0541 10.6353 71.6511 10.475 71.1398 10.475C70.7671 10.475 70.4421 10.5617 70.1648 10.735C69.8875 10.9083 69.6751 11.1683 69.5278 11.515C69.3805 11.853 69.3068 12.269 69.3068 12.763C69.3068 13.2483 69.3848 13.66 69.5408 13.998C69.6968 14.336 69.9178 14.5917 70.2038 14.765C70.4898 14.9383 70.8278 15.025 71.2178 15.025C71.6511 15.025 72.0021 14.9427 72.2708 14.778C72.5395 14.6133 72.7518 14.3837 72.9078 14.089L74.0128 14.609C73.8568 14.921 73.6445 15.194 73.3758 15.428C73.1158 15.6533 72.8038 15.8267 72.4398 15.948C72.0758 16.0693 71.6771 16.13 71.2438 16.13ZM75.8994 16V9.5H77.0824L77.2124 10.67C77.3858 10.2453 77.6414 9.92467 77.9794 9.708C78.3261 9.48267 78.7508 9.37 79.2534 9.37C79.3834 9.37 79.5134 9.383 79.6434 9.409C79.7734 9.42633 79.8818 9.45667 79.9684 9.5L79.7734 10.722C79.6781 10.6873 79.5698 10.6613 79.4484 10.644C79.3358 10.618 79.1798 10.605 78.9804 10.605C78.7118 10.605 78.4474 10.6787 78.1874 10.826C77.9274 10.9647 77.7108 11.177 77.5374 11.463C77.3728 11.749 77.2904 12.113 77.2904 12.555V16H75.8994ZM83.9772 16.13C83.3272 16.13 82.7552 15.9957 82.2612 15.727C81.7672 15.4583 81.3815 15.0727 81.1042 14.57C80.8355 14.0587 80.7012 13.452 80.7012 12.75C80.7012 12.048 80.8355 11.4457 81.1042 10.943C81.3815 10.4317 81.7629 10.0417 82.2482 9.773C82.7335 9.50433 83.2839 9.37 83.8992 9.37C84.5319 9.37 85.0692 9.5 85.5112 9.76C85.9532 10.02 86.2912 10.3753 86.5252 10.826C86.7592 11.2767 86.8762 11.788 86.8762 12.36C86.8762 12.516 86.8719 12.6633 86.8632 12.802C86.8545 12.9407 86.8415 13.062 86.8242 13.166H81.5982V12.1H86.2132L85.5242 12.308C85.5242 11.7187 85.3769 11.268 85.0822 10.956C84.7875 10.6353 84.3845 10.475 83.8732 10.475C83.5005 10.475 83.1755 10.5617 82.8982 10.735C82.6209 10.9083 82.4085 11.1683 82.2612 11.515C82.1139 11.853 82.0402 12.269 82.0402 12.763C82.0402 13.2483 82.1182 13.66 82.2742 13.998C82.4302 14.336 82.6512 14.5917 82.9372 14.765C83.2232 14.9383 83.5612 15.025 83.9512 15.025C84.3845 15.025 84.7355 14.9427 85.0042 14.778C85.2729 14.6133 85.4852 14.3837 85.6412 14.089L86.7462 14.609C86.5902 14.921 86.3779 15.194 86.1092 15.428C85.8492 15.6533 85.5372 15.8267 85.1732 15.948C84.8092 16.0693 84.4105 16.13 83.9772 16.13Z" fill="#333D2A"/>
</svg>
