<svg width="99" height="27" viewBox="0 0 99 27" fill="none" xmlns="http://www.w3.org/2000/svg">
<rect width="99" height="27" fill="#FAE4D3"/>
<path d="M20.0858 6.81516C21.0045 6.81516 21.7325 7.04483 22.2698 7.50416C22.8158 7.9635 23.0888 8.58316 23.0888 9.36316C23.0888 10.1692 22.8158 10.7932 22.2698 11.2352C21.7325 11.6685 21.0045 11.8852 20.0858 11.8852L19.9558 11.9632H17.9668V15.3952H16.5888V6.81516H20.0858ZM19.9818 10.8062C20.5452 10.8062 20.9612 10.6935 21.2298 10.4682C21.5072 10.2342 21.6458 9.87883 21.6458 9.40216C21.6458 8.93416 21.5072 8.58316 21.2298 8.34916C20.9612 8.11516 20.5452 7.99816 19.9818 7.99816H17.9668V10.8062H19.9818ZM20.8008 11.0922L23.5958 15.3952H21.9968L19.6048 11.6382L20.8008 11.0922ZM27.8105 15.5252C27.1605 15.5252 26.5885 15.3908 26.0945 15.1222C25.6005 14.8535 25.2148 14.4678 24.9375 13.9652C24.6688 13.4538 24.5345 12.8472 24.5345 12.1452C24.5345 11.4432 24.6688 10.8408 24.9375 10.3382C25.2148 9.82683 25.5961 9.43683 26.0815 9.16816C26.5668 8.8995 27.1171 8.76516 27.7325 8.76516C28.3651 8.76516 28.9025 8.89516 29.3445 9.15516C29.7865 9.41516 30.1245 9.7705 30.3585 10.2212C30.5925 10.6718 30.7095 11.1832 30.7095 11.7552C30.7095 11.9112 30.7051 12.0585 30.6965 12.1972C30.6878 12.3358 30.6748 12.4572 30.6575 12.5612H25.4315V11.4952H30.0465L29.3575 11.7032C29.3575 11.1138 29.2101 10.6632 28.9155 10.3512C28.6208 10.0305 28.2178 9.87016 27.7065 9.87016C27.3338 9.87016 27.0088 9.95683 26.7315 10.1302C26.4541 10.3035 26.2418 10.5635 26.0945 10.9102C25.9471 11.2482 25.8735 11.6642 25.8735 12.1582C25.8735 12.6435 25.9515 13.0552 26.1075 13.3932C26.2635 13.7312 26.4845 13.9868 26.7705 14.1602C27.0565 14.3335 27.3945 14.4202 27.7845 14.4202C28.2178 14.4202 28.5688 14.3378 28.8375 14.1732C29.1061 14.0085 29.3185 13.7788 29.4745 13.4842L30.5795 14.0042C30.4235 14.3162 30.2111 14.5892 29.9425 14.8232C29.6825 15.0485 29.3705 15.2218 29.0065 15.3432C28.6425 15.4645 28.2438 15.5252 27.8105 15.5252ZM36.2231 11.2222C36.2231 10.7888 36.1018 10.4552 35.8591 10.2212C35.6251 9.9785 35.3001 9.85716 34.8841 9.85716C34.4941 9.85716 34.1604 9.94816 33.8831 10.1302C33.6058 10.3122 33.4021 10.6068 33.2721 11.0142L32.1021 10.5202C32.2668 9.9915 32.5874 9.56683 33.0641 9.24616C33.5494 8.9255 34.1734 8.76516 34.9361 8.76516C35.4561 8.76516 35.9154 8.85183 36.3141 9.02516C36.7128 9.18983 37.0248 9.44116 37.2501 9.77916C37.4841 10.1172 37.6011 10.5505 37.6011 11.0792V13.9782C37.6011 14.2988 37.7614 14.4592 38.0821 14.4592C38.2381 14.4592 38.3898 14.4375 38.5371 14.3942L38.4591 15.3562C38.2598 15.4515 38.0084 15.4992 37.7051 15.4992C37.4278 15.4992 37.1764 15.4515 36.9511 15.3562C36.7344 15.2522 36.5611 15.1005 36.4311 14.9012C36.3098 14.6932 36.2491 14.4375 36.2491 14.1342V14.0432L36.5351 14.0302C36.4571 14.3682 36.2968 14.6498 36.0541 14.8752C35.8114 15.0918 35.5298 15.2565 35.2091 15.3692C34.8884 15.4732 34.5634 15.5252 34.2341 15.5252C33.8268 15.5252 33.4584 15.4602 33.1291 15.3302C32.8084 15.2002 32.5528 15.0052 32.3621 14.7452C32.1801 14.4765 32.0891 14.1472 32.0891 13.7572C32.0891 13.2718 32.2451 12.8732 32.5571 12.5612C32.8778 12.2492 33.3284 12.0368 33.9091 11.9242L36.4311 11.4302L36.4181 12.4052L34.5851 12.7822C34.2211 12.8515 33.9481 12.9512 33.7661 13.0812C33.5841 13.2112 33.4931 13.4018 33.4931 13.6532C33.4931 13.8958 33.5841 14.0908 33.7661 14.2382C33.9568 14.3768 34.2081 14.4462 34.5201 14.4462C34.7368 14.4462 34.9448 14.4202 35.1441 14.3682C35.3521 14.3162 35.5384 14.2338 35.7031 14.1212C35.8678 13.9998 35.9934 13.8482 36.0801 13.6662C36.1754 13.4755 36.2231 13.2502 36.2231 12.9902V11.2222ZM42.3635 15.5252C41.8261 15.5252 41.3365 15.3908 40.8945 15.1222C40.4611 14.8535 40.1188 14.4678 39.8675 13.9652C39.6161 13.4625 39.4905 12.8602 39.4905 12.1582C39.4905 11.4302 39.6248 10.8148 39.8935 10.3122C40.1621 9.8095 40.5218 9.42816 40.9725 9.16816C41.4231 8.8995 41.9171 8.76516 42.4545 8.76516C43.0091 8.76516 43.4771 8.91683 43.8585 9.22016C44.2398 9.5235 44.4955 9.91783 44.6255 10.4032L44.4695 10.5462V5.97016H45.8605V15.3952H44.6255L44.5215 13.6272L44.7035 13.6402C44.6428 14.0302 44.4998 14.3682 44.2745 14.6542C44.0491 14.9315 43.7675 15.1482 43.4295 15.3042C43.1001 15.4515 42.7448 15.5252 42.3635 15.5252ZM42.6625 14.4072C43.0351 14.4072 43.3558 14.3118 43.6245 14.1212C43.8931 13.9305 44.1011 13.6618 44.2485 13.3152C44.3958 12.9685 44.4695 12.5525 44.4695 12.0672C44.4695 11.6165 44.3958 11.2308 44.2485 10.9102C44.1011 10.5808 43.8931 10.3295 43.6245 10.1562C43.3645 9.98283 43.0611 9.89616 42.7145 9.89616C42.1338 9.89616 41.6831 10.0955 41.3625 10.4942C41.0418 10.8928 40.8815 11.4432 40.8815 12.1452C40.8815 12.8472 41.0375 13.4018 41.3495 13.8092C41.6615 14.2078 42.0991 14.4072 42.6625 14.4072ZM61.2154 6.81516V15.3952H59.9284V10.4292L60.0324 8.06316H60.0194L57.4064 15.3952H56.2494L53.6364 8.06316H53.6234L53.7274 10.4292V15.3952H52.4404V6.81516H54.5074L56.2364 11.7812L56.8344 13.8222H56.8604L57.4714 11.7812L59.1874 6.81516H61.2154ZM66.3017 8.76516C66.9344 8.76516 67.4934 8.8995 67.9787 9.16816C68.4641 9.43683 68.8411 9.82683 69.1097 10.3382C69.3871 10.8408 69.5257 11.4432 69.5257 12.1452C69.5257 12.8472 69.3871 13.4538 69.1097 13.9652C68.8411 14.4678 68.4641 14.8535 67.9787 15.1222C67.4934 15.3908 66.9344 15.5252 66.3017 15.5252C65.6691 15.5252 65.1101 15.3908 64.6247 15.1222C64.1394 14.8535 63.7581 14.4678 63.4807 13.9652C63.2034 13.4538 63.0647 12.8472 63.0647 12.1452C63.0647 11.4432 63.2034 10.8408 63.4807 10.3382C63.7581 9.82683 64.1394 9.43683 64.6247 9.16816C65.1101 8.8995 65.6691 8.76516 66.3017 8.76516ZM66.3017 9.85716C65.9117 9.85716 65.5781 9.94816 65.3007 10.1302C65.0321 10.3035 64.8241 10.5592 64.6767 10.8972C64.5294 11.2352 64.4557 11.6512 64.4557 12.1452C64.4557 12.6305 64.5294 13.0465 64.6767 13.3932C64.8241 13.7312 65.0321 13.9912 65.3007 14.1732C65.5781 14.3465 65.9117 14.4332 66.3017 14.4332C66.6917 14.4332 67.0211 14.3465 67.2897 14.1732C67.5584 13.9912 67.7664 13.7312 67.9137 13.3932C68.0611 13.0465 68.1347 12.6305 68.1347 12.1452C68.1347 11.6512 68.0611 11.2352 67.9137 10.8972C67.7664 10.5592 67.5584 10.3035 67.2897 10.1302C67.0211 9.94816 66.6917 9.85716 66.3017 9.85716ZM71.2757 15.3952V8.89516H72.4587L72.5887 10.0652C72.762 9.6405 73.0177 9.31983 73.3557 9.10316C73.7023 8.87783 74.127 8.76516 74.6297 8.76516C74.7597 8.76516 74.8897 8.77816 75.0197 8.80416C75.1497 8.8215 75.258 8.85183 75.3447 8.89516L75.1497 10.1172C75.0543 10.0825 74.946 10.0565 74.8247 10.0392C74.712 10.0132 74.556 10.0002 74.3567 10.0002C74.088 10.0002 73.8237 10.0738 73.5637 10.2212C73.3037 10.3598 73.087 10.5722 72.9137 10.8582C72.749 11.1442 72.6667 11.5082 72.6667 11.9502V15.3952H71.2757ZM79.3534 15.5252C78.7034 15.5252 78.1314 15.3908 77.6374 15.1222C77.1434 14.8535 76.7578 14.4678 76.4804 13.9652C76.2118 13.4538 76.0774 12.8472 76.0774 12.1452C76.0774 11.4432 76.2118 10.8408 76.4804 10.3382C76.7578 9.82683 77.1391 9.43683 77.6244 9.16816C78.1098 8.8995 78.6601 8.76516 79.2754 8.76516C79.9081 8.76516 80.4454 8.89516 80.8874 9.15516C81.3294 9.41516 81.6674 9.7705 81.9014 10.2212C82.1354 10.6718 82.2524 11.1832 82.2524 11.7552C82.2524 11.9112 82.2481 12.0585 82.2394 12.1972C82.2308 12.3358 82.2178 12.4572 82.2004 12.5612H76.9744V11.4952H81.5894L80.9004 11.7032C80.9004 11.1138 80.7531 10.6632 80.4584 10.3512C80.1638 10.0305 79.7608 9.87016 79.2494 9.87016C78.8768 9.87016 78.5518 9.95683 78.2744 10.1302C77.9971 10.3035 77.7848 10.5635 77.6374 10.9102C77.4901 11.2482 77.4164 11.6642 77.4164 12.1582C77.4164 12.6435 77.4944 13.0552 77.6504 13.3932C77.8064 13.7312 78.0274 13.9868 78.3134 14.1602C78.5994 14.3335 78.9374 14.4202 79.3274 14.4202C79.7608 14.4202 80.1118 14.3378 80.3804 14.1732C80.6491 14.0085 80.8614 13.7788 81.0174 13.4842L82.1224 14.0042C81.9664 14.3162 81.7541 14.5892 81.4854 14.8232C81.2254 15.0485 80.9134 15.2218 80.5494 15.3432C80.1854 15.4645 79.7868 15.5252 79.3534 15.5252Z" fill="#173726"/>
</svg>
