<svg width="43" height="34" viewBox="0 0 43 34" fill="none" xmlns="http://www.w3.org/2000/svg">
<rect width="43" height="34" rx="3.5" fill="#FAE4D3"/>
<path fill-rule="evenodd" clip-rule="evenodd" d="M27.1965 20.8127L32.702 26.232C32.9026 26.4295 32.9026 26.7488 32.702 26.9462L32.2795 27.3621C32.0789 27.5596 31.7546 27.5596 31.554 27.3621L26.0484 21.9428C25.9545 21.8462 25.8991 21.7202 25.8991 21.5857V21.1572C24.3157 22.594 22.2031 23.4762 19.8771 23.4762C14.9734 23.4762 11 19.5651 11 14.7381C11 9.91114 14.9734 6 19.8771 6C24.7809 6 28.7543 9.91114 28.7543 14.7381C28.7543 17.0276 27.858 19.1071 26.3941 20.6657H26.8337C26.9703 20.6657 27.0983 20.7161 27.1965 20.8127ZM12.3657 14.7381C12.3657 18.8257 15.7245 22.1319 19.8771 22.1319C24.0297 22.1319 27.3885 18.8257 27.3885 14.7381C27.3885 10.6505 24.0297 7.34432 19.8771 7.34432C15.7245 7.34432 12.3657 10.6505 12.3657 14.7381Z" fill="white"/>
<path d="M32.702 26.232L33.0528 25.8757L32.702 26.232ZM27.1965 20.8127L26.8457 21.1691L26.8457 21.1691L27.1965 20.8127ZM32.702 26.9462L32.3513 26.5899L32.702 26.9462ZM32.2795 27.3621L32.6303 27.7185L32.2795 27.3621ZM31.554 27.3621L31.9047 27.0058L31.554 27.3621ZM26.0484 21.9428L25.6898 22.2914L25.6977 22.2992L26.0484 21.9428ZM25.8991 21.1572H26.3991V20.0284L25.5631 20.787L25.8991 21.1572ZM26.3941 20.6657L26.0297 20.3234L25.2386 21.1657H26.3941V20.6657ZM33.0528 25.8757L27.5472 20.4564L26.8457 21.1691L32.3513 26.5884L33.0528 25.8757ZM33.0528 27.3026C33.4524 26.9092 33.4524 26.269 33.0528 25.8757L32.3513 26.5884C32.353 26.5901 32.3529 26.5905 32.3526 26.5898C32.3525 26.5895 32.3525 26.5892 32.3525 26.5891C32.3525 26.5891 32.3525 26.5888 32.3526 26.5884C32.3529 26.5877 32.353 26.5882 32.3513 26.5899L33.0528 27.3026ZM32.6303 27.7185L33.0528 27.3026L32.3513 26.5899L31.9287 27.0058L32.6303 27.7185ZM31.2032 27.7185C31.5984 28.1075 32.2351 28.1075 32.6303 27.7185L31.9287 27.0058C31.927 27.0075 31.9256 27.0083 31.9242 27.0089C31.9224 27.0096 31.9198 27.0102 31.9167 27.0102C31.9137 27.0102 31.9111 27.0096 31.9093 27.0089C31.9079 27.0083 31.9065 27.0075 31.9047 27.0058L31.2032 27.7185ZM25.6977 22.2992L31.2032 27.7185L31.9047 27.0058L26.3992 21.5865L25.6977 22.2992ZM25.3991 21.5857C25.3991 21.8612 25.5132 22.1095 25.6899 22.2913L26.407 21.5944C26.4014 21.5886 26.3994 21.5844 26.3989 21.5833C26.3985 21.5824 26.3991 21.5835 26.3991 21.5857H25.3991ZM25.3991 21.1572V21.5857H26.3991V21.1572H25.3991ZM19.8771 23.9762C22.3319 23.9762 24.5631 23.0446 26.2351 21.5275L25.5631 20.787C24.0682 22.1434 22.0743 22.9762 19.8771 22.9762V23.9762ZM10.5 14.7381C10.5 19.8486 14.7047 23.9762 19.8771 23.9762V22.9762C15.242 22.9762 11.5 19.2815 11.5 14.7381H10.5ZM19.8771 5.5C14.7047 5.5 10.5 9.62758 10.5 14.7381H11.5C11.5 10.1947 15.242 6.5 19.8771 6.5V5.5ZM29.2543 14.7381C29.2543 9.62758 25.0496 5.5 19.8771 5.5V6.5C24.5122 6.5 28.2543 10.1947 28.2543 14.7381H29.2543ZM26.7586 21.008C28.305 19.3616 29.2543 17.1614 29.2543 14.7381H28.2543C28.2543 16.8939 27.4111 18.8527 26.0297 20.3234L26.7586 21.008ZM26.8337 20.1657H26.3941V21.1657H26.8337V20.1657ZM27.5472 20.4564C27.3524 20.2646 27.097 20.1657 26.8337 20.1657V21.1657C26.8401 21.1657 26.8428 21.1668 26.8429 21.1669C26.8431 21.167 26.8433 21.167 26.8435 21.1672C26.8437 21.1673 26.8445 21.1679 26.8457 21.1691L27.5472 20.4564ZM19.8771 21.6319C15.9932 21.6319 12.8657 18.5421 12.8657 14.7381H11.8657C11.8657 19.1092 15.4558 22.6319 19.8771 22.6319V21.6319ZM26.8885 14.7381C26.8885 18.5421 23.7611 21.6319 19.8771 21.6319V22.6319C24.2984 22.6319 27.8885 19.1092 27.8885 14.7381H26.8885ZM19.8771 7.84432C23.7611 7.84432 26.8885 10.9341 26.8885 14.7381H27.8885C27.8885 10.367 24.2984 6.84432 19.8771 6.84432V7.84432ZM12.8657 14.7381C12.8657 10.9341 15.9932 7.84432 19.8771 7.84432V6.84432C15.4558 6.84432 11.8657 10.367 11.8657 14.7381H12.8657Z" fill="white"/>
</svg>
