<svg width="106" height="23" viewBox="0 0 106 23" fill="none" xmlns="http://www.w3.org/2000/svg">
<rect width="106" height="23" fill="#FAE4D3"/>
<path d="M25.477 7.29C26.2483 7.29 26.9156 7.43733 27.479 7.732C28.0423 8.018 28.519 8.44267 28.909 9.006L27.973 9.903C27.6436 9.40033 27.271 9.04067 26.855 8.824C26.4476 8.59867 25.9623 8.486 25.399 8.486C24.983 8.486 24.6406 8.54233 24.372 8.655C24.1033 8.76767 23.904 8.91933 23.774 9.11C23.6526 9.292 23.592 9.5 23.592 9.734C23.592 10.0027 23.683 10.2367 23.865 10.436C24.0556 10.6353 24.4066 10.7913 24.918 10.904L26.66 11.294C27.492 11.476 28.0813 11.7533 28.428 12.126C28.7746 12.4987 28.948 12.971 28.948 13.543C28.948 14.0717 28.805 14.531 28.519 14.921C28.233 15.311 27.8343 15.61 27.323 15.818C26.8203 16.026 26.2266 16.13 25.542 16.13C24.9353 16.13 24.3893 16.052 23.904 15.896C23.4186 15.74 22.994 15.5277 22.63 15.259C22.266 14.9903 21.967 14.6827 21.733 14.336L22.695 13.374C22.877 13.6773 23.1066 13.9503 23.384 14.193C23.6613 14.427 23.982 14.609 24.346 14.739C24.7186 14.869 25.1303 14.934 25.581 14.934C25.9796 14.934 26.322 14.8863 26.608 14.791C26.9026 14.6957 27.1236 14.557 27.271 14.375C27.427 14.1843 27.505 13.959 27.505 13.699C27.505 13.4477 27.4183 13.2267 27.245 13.036C27.0803 12.8453 26.7683 12.698 26.309 12.594L24.424 12.165C23.904 12.0523 23.475 11.892 23.137 11.684C22.799 11.476 22.5476 11.2247 22.383 10.93C22.2183 10.6267 22.136 10.2887 22.136 9.916C22.136 9.43067 22.266 8.993 22.526 8.603C22.7946 8.20433 23.1803 7.888 23.683 7.654C24.1856 7.41133 24.7836 7.29 25.477 7.29ZM32.5958 7.589V14.05C32.5958 14.3707 32.6781 14.6047 32.8428 14.752C33.0161 14.8993 33.2458 14.973 33.5318 14.973C33.7658 14.973 33.9694 14.9383 34.1428 14.869C34.3161 14.791 34.4764 14.687 34.6238 14.557L34.9358 15.571C34.7364 15.7443 34.4894 15.883 34.1948 15.987C33.9088 16.0823 33.5881 16.13 33.2328 16.13C32.8601 16.13 32.5178 16.0693 32.2058 15.948C31.8938 15.8267 31.6511 15.6317 31.4778 15.363C31.3044 15.0857 31.2134 14.726 31.2048 14.284V7.979L32.5958 7.589ZM34.8318 9.5V10.592H29.9568V9.5H34.8318ZM40.0026 11.827C40.0026 11.3937 39.8813 11.06 39.6386 10.826C39.4046 10.5833 39.0796 10.462 38.6636 10.462C38.2736 10.462 37.94 10.553 37.6626 10.735C37.3853 10.917 37.1816 11.2117 37.0516 11.619L35.8816 11.125C36.0463 10.5963 36.367 10.1717 36.8436 9.851C37.329 9.53033 37.953 9.37 38.7156 9.37C39.2356 9.37 39.695 9.45667 40.0936 9.63C40.4923 9.79467 40.8043 10.046 41.0296 10.384C41.2636 10.722 41.3806 11.1553 41.3806 11.684V14.583C41.3806 14.9037 41.541 15.064 41.8616 15.064C42.0176 15.064 42.1693 15.0423 42.3166 14.999L42.2386 15.961C42.0393 16.0563 41.788 16.104 41.4846 16.104C41.2073 16.104 40.956 16.0563 40.7306 15.961C40.514 15.857 40.3406 15.7053 40.2106 15.506C40.0893 15.298 40.0286 15.0423 40.0286 14.739V14.648L40.3146 14.635C40.2366 14.973 40.0763 15.2547 39.8336 15.48C39.591 15.6967 39.3093 15.8613 38.9886 15.974C38.668 16.078 38.343 16.13 38.0136 16.13C37.6063 16.13 37.238 16.065 36.9086 15.935C36.588 15.805 36.3323 15.61 36.1416 15.35C35.9596 15.0813 35.8686 14.752 35.8686 14.362C35.8686 13.8767 36.0246 13.478 36.3366 13.166C36.6573 12.854 37.108 12.6417 37.6886 12.529L40.2106 12.035L40.1976 13.01L38.3646 13.387C38.0006 13.4563 37.7276 13.556 37.5456 13.686C37.3636 13.816 37.2726 14.0067 37.2726 14.258C37.2726 14.5007 37.3636 14.6957 37.5456 14.843C37.7363 14.9817 37.9876 15.051 38.2996 15.051C38.5163 15.051 38.7243 15.025 38.9236 14.973C39.1316 14.921 39.318 14.8387 39.4826 14.726C39.6473 14.6047 39.773 14.453 39.8596 14.271C39.955 14.0803 40.0026 13.855 40.0026 13.595V11.827ZM43.6597 16V9.5H44.8427L44.9727 10.67C45.146 10.2453 45.4017 9.92467 45.7397 9.708C46.0864 9.48267 46.511 9.37 47.0137 9.37C47.1437 9.37 47.2737 9.383 47.4037 9.409C47.5337 9.42633 47.642 9.45667 47.7287 9.5L47.5337 10.722C47.4384 10.6873 47.33 10.6613 47.2087 10.644C47.096 10.618 46.94 10.605 46.7407 10.605C46.472 10.605 46.2077 10.6787 45.9477 10.826C45.6877 10.9647 45.471 11.177 45.2977 11.463C45.133 11.749 45.0507 12.113 45.0507 12.555V16H43.6597ZM50.6231 7.589V14.05C50.6231 14.3707 50.7055 14.6047 50.8701 14.752C51.0435 14.8993 51.2731 14.973 51.5591 14.973C51.7931 14.973 51.9968 14.9383 52.1701 14.869C52.3435 14.791 52.5038 14.687 52.6511 14.557L52.9631 15.571C52.7638 15.7443 52.5168 15.883 52.2221 15.987C51.9361 16.0823 51.6155 16.13 51.2601 16.13C50.8875 16.13 50.5451 16.0693 50.2331 15.948C49.9211 15.8267 49.6785 15.6317 49.5051 15.363C49.3318 15.0857 49.2408 14.726 49.2321 14.284V7.979L50.6231 7.589ZM52.8591 9.5V10.592H47.9841V9.5H52.8591ZM58.4624 16V6.575H59.8534V10.54C60.0701 10.1327 60.3604 9.838 60.7244 9.656C61.0971 9.46533 61.5088 9.37 61.9594 9.37C62.4188 9.37 62.8304 9.461 63.1944 9.643C63.5671 9.81633 63.8618 10.0807 64.0784 10.436C64.2951 10.7913 64.4034 11.242 64.4034 11.788V16H63.0124V12.23C63.0124 11.5887 62.8781 11.1423 62.6094 10.891C62.3494 10.6397 62.0201 10.514 61.6214 10.514C61.3441 10.514 61.0668 10.5833 60.7894 10.722C60.5208 10.852 60.2954 11.0687 60.1134 11.372C59.9401 11.6667 59.8534 12.0653 59.8534 12.568V16H58.4624ZM69.3713 16.13C68.7213 16.13 68.1493 15.9957 67.6553 15.727C67.1613 15.4583 66.7756 15.0727 66.4983 14.57C66.2296 14.0587 66.0953 13.452 66.0953 12.75C66.0953 12.048 66.2296 11.4457 66.4983 10.943C66.7756 10.4317 67.1569 10.0417 67.6423 9.773C68.1276 9.50433 68.6779 9.37 69.2933 9.37C69.9259 9.37 70.4633 9.5 70.9053 9.76C71.3473 10.02 71.6853 10.3753 71.9193 10.826C72.1533 11.2767 72.2703 11.788 72.2703 12.36C72.2703 12.516 72.2659 12.6633 72.2573 12.802C72.2486 12.9407 72.2356 13.062 72.2183 13.166H66.9923V12.1H71.6073L70.9183 12.308C70.9183 11.7187 70.7709 11.268 70.4763 10.956C70.1816 10.6353 69.7786 10.475 69.2673 10.475C68.8946 10.475 68.5696 10.5617 68.2923 10.735C68.0149 10.9083 67.8026 11.1683 67.6553 11.515C67.5079 11.853 67.4343 12.269 67.4343 12.763C67.4343 13.2483 67.5123 13.66 67.6683 13.998C67.8243 14.336 68.0453 14.5917 68.3313 14.765C68.6173 14.9383 68.9553 15.025 69.3453 15.025C69.7786 15.025 70.1296 14.9427 70.3983 14.778C70.6669 14.6133 70.8793 14.3837 71.0353 14.089L72.1403 14.609C71.9843 14.921 71.7719 15.194 71.5033 15.428C71.2433 15.6533 70.9313 15.8267 70.5673 15.948C70.2033 16.0693 69.8046 16.13 69.3713 16.13ZM74.0269 16V9.5H75.2099L75.3399 10.67C75.5132 10.2453 75.7689 9.92467 76.1069 9.708C76.4535 9.48267 76.8782 9.37 77.3809 9.37C77.5109 9.37 77.6409 9.383 77.7709 9.409C77.9009 9.42633 78.0092 9.45667 78.0959 9.5L77.9009 10.722C77.8055 10.6873 77.6972 10.6613 77.5759 10.644C77.4632 10.618 77.3072 10.605 77.1079 10.605C76.8392 10.605 76.5749 10.6787 76.3149 10.826C76.0549 10.9647 75.8382 11.177 75.6649 11.463C75.5002 11.749 75.4179 12.113 75.4179 12.555V16H74.0269ZM82.1046 16.13C81.4546 16.13 80.8826 15.9957 80.3886 15.727C79.8946 15.4583 79.509 15.0727 79.2316 14.57C78.963 14.0587 78.8286 13.452 78.8286 12.75C78.8286 12.048 78.963 11.4457 79.2316 10.943C79.509 10.4317 79.8903 10.0417 80.3756 9.773C80.861 9.50433 81.4113 9.37 82.0266 9.37C82.6593 9.37 83.1966 9.5 83.6386 9.76C84.0806 10.02 84.4186 10.3753 84.6526 10.826C84.8866 11.2767 85.0036 11.788 85.0036 12.36C85.0036 12.516 84.9993 12.6633 84.9906 12.802C84.982 12.9407 84.969 13.062 84.9516 13.166H79.7256V12.1H84.3406L83.6516 12.308C83.6516 11.7187 83.5043 11.268 83.2096 10.956C82.915 10.6353 82.512 10.475 82.0006 10.475C81.628 10.475 81.303 10.5617 81.0256 10.735C80.7483 10.9083 80.536 11.1683 80.3886 11.515C80.2413 11.853 80.1676 12.269 80.1676 12.763C80.1676 13.2483 80.2456 13.66 80.4016 13.998C80.5576 14.336 80.7786 14.5917 81.0646 14.765C81.3506 14.9383 81.6886 15.025 82.0786 15.025C82.512 15.025 82.863 14.9427 83.1316 14.778C83.4003 14.6133 83.6126 14.3837 83.7686 14.089L84.8736 14.609C84.7176 14.921 84.5053 15.194 84.2366 15.428C83.9766 15.6533 83.6646 15.8267 83.3006 15.948C82.9366 16.0693 82.538 16.13 82.1046 16.13Z" fill="#333D2A"/>
</svg>
